<?xml version="1.0" standalone="no"?>
<!DOCTYPE svg PUBLIC "-//W3C//DTD SVG 20010904//EN"
 "http://www.w3.org/TR/2001/REC-SVG-20010904/DTD/svg10.dtd">
<svg version="1.0" xmlns="http://www.w3.org/2000/svg"
 width="64.000000pt" height="64.000000pt" viewBox="0 0 64.000000 64.000000"
 preserveAspectRatio="xMidYMid meet">

<g transform="translate(0.000000,64.000000) scale(0.100000,-0.100000)"
fill="#000000" stroke="none">
<path d="M480 525 c-24 -25 -42 -45 -39 -45 3 0 25 20 49 45 24 25 42 45 39
45 -3 0 -25 -20 -49 -45z"/>
<path d="M473 451 c146 -7 147 -8 147 -131 0 -123 -1 -124 -147 -131 l-118 -5
111 -2 c99 -2 114 0 138 19 25 20 26 24 26 119 0 95 -1 99 -26 119 -24 19 -39
21 -138 19 l-111 -2 118 -5z"/>
<path d="M435 368 c-9 -24 -1 -103 10 -103 14 0 19 95 6 108 -7 7 -12 5 -16
-5z m12 -75 c-2 -16 -4 -3 -4 27 0 30 2 43 4 28 2 -16 2 -40 0 -55z"/>
<path d="M474 366 c-8 -20 0 -101 9 -101 5 0 15 17 22 39 10 30 11 43 2 57
-14 22 -26 24 -33 5z m36 -28 c0 -5 -4 -7 -9 -3 -6 3 -12 -12 -14 -32 -3 -31
-4 -28 -5 16 -2 46 0 52 13 41 8 -7 15 -17 15 -22z"/>
<path d="M533 353 c-4 -16 -6 -34 -4 -42 1 -8 -2 -10 -11 -5 -9 6 -8 0 3 -16
29 -44 39 -36 39 29 0 63 -14 81 -27 34z m17 -40 c0 -27 -4 -43 -9 -37 -8 8
-4 84 5 84 2 0 4 -21 4 -47z"/>
<path d="M480 118 c24 -27 45 -48 47 -48 8 0 0 9 -44 50 l-48 45 45 -47z"/>
</g>
</svg>
